<mxfile host="Electron" modified="2024-03-09T14:14:54.115Z" agent="Mozilla/5.0 (Windows NT 10.0; Win64; x64) AppleWebKit/537.36 (KHTML, like Gecko) draw.io/23.1.5 Chrome/120.0.6099.109 Electron/28.1.0 Safari/537.36" etag="8ukxEVJCQAiAYQOXk0pU" version="23.1.5" type="device">
  <diagram name="第 1 页" id="hzXZD4Fvr1RhlCQswKYe">
    <mxGraphModel dx="965" dy="556" grid="1" gridSize="10" guides="1" tooltips="1" connect="1" arrows="1" fold="1" page="1" pageScale="1" pageWidth="827" pageHeight="1169" math="0" shadow="0">
      <root>
        <mxCell id="0" />
        <mxCell id="1" parent="0" />
        <mxCell id="LvXVNaWHWUKS7mq7CPCq-6" value="" style="rounded=0;whiteSpace=wrap;html=1;" parent="1" vertex="1">
          <mxGeometry x="1090" y="440" width="120" height="190" as="geometry" />
        </mxCell>
        <mxCell id="gUNHapDYRPtvfUM0zRov-5" value="" style="rounded=0;whiteSpace=wrap;html=1;fillColor=#ffe6cc;strokeColor=#d79b00;" parent="1" vertex="1">
          <mxGeometry x="230" y="280" width="350" height="200" as="geometry" />
        </mxCell>
        <mxCell id="bnBFv9AylUqrLQYS7lNk-14" value="" style="rounded=0;whiteSpace=wrap;html=1;" parent="1" vertex="1">
          <mxGeometry x="230" y="20" width="350" height="200" as="geometry" />
        </mxCell>
        <mxCell id="bnBFv9AylUqrLQYS7lNk-5" value="1 发出请求" style="edgeStyle=orthogonalEdgeStyle;rounded=0;orthogonalLoop=1;jettySize=auto;html=1;entryX=0;entryY=0.5;entryDx=0;entryDy=0;" parent="1" source="bnBFv9AylUqrLQYS7lNk-1" target="bnBFv9AylUqrLQYS7lNk-2" edge="1">
          <mxGeometry x="-0.0909" y="10" relative="1" as="geometry">
            <mxPoint as="offset" />
          </mxGeometry>
        </mxCell>
        <mxCell id="bnBFv9AylUqrLQYS7lNk-1" value="client" style="rounded=0;whiteSpace=wrap;html=1;fillColor=#dae8fc;strokeColor=#6c8ebf;" parent="1" vertex="1">
          <mxGeometry x="60" y="100" width="80" height="40" as="geometry" />
        </mxCell>
        <mxCell id="bnBFv9AylUqrLQYS7lNk-9" value="2 转给路由" style="edgeStyle=orthogonalEdgeStyle;rounded=0;orthogonalLoop=1;jettySize=auto;html=1;entryX=0;entryY=0.5;entryDx=0;entryDy=0;" parent="1" source="bnBFv9AylUqrLQYS7lNk-2" target="bnBFv9AylUqrLQYS7lNk-3" edge="1">
          <mxGeometry x="0.0399" y="10" relative="1" as="geometry">
            <Array as="points">
              <mxPoint x="290" y="50" />
            </Array>
            <mxPoint as="offset" />
          </mxGeometry>
        </mxCell>
        <mxCell id="bnBFv9AylUqrLQYS7lNk-2" value="server" style="rounded=0;whiteSpace=wrap;html=1;fillColor=#ffe6cc;strokeColor=#d79b00;" parent="1" vertex="1">
          <mxGeometry x="250" y="100" width="80" height="40" as="geometry" />
        </mxCell>
        <mxCell id="bnBFv9AylUqrLQYS7lNk-7" value="3 决定调用" style="edgeStyle=orthogonalEdgeStyle;rounded=0;orthogonalLoop=1;jettySize=auto;html=1;labelPosition=center;verticalLabelPosition=middle;align=center;verticalAlign=middle;horizontal=0;" parent="1" source="bnBFv9AylUqrLQYS7lNk-3" target="bnBFv9AylUqrLQYS7lNk-4" edge="1">
          <mxGeometry y="10" relative="1" as="geometry">
            <mxPoint as="offset" />
          </mxGeometry>
        </mxCell>
        <mxCell id="bnBFv9AylUqrLQYS7lNk-3" value="router" style="rounded=0;whiteSpace=wrap;html=1;fillColor=#ffe6cc;strokeColor=#d79b00;" parent="1" vertex="1">
          <mxGeometry x="490" y="30" width="80" height="40" as="geometry" />
        </mxCell>
        <mxCell id="bnBFv9AylUqrLQYS7lNk-8" value="4 返回响应" style="edgeStyle=orthogonalEdgeStyle;rounded=0;orthogonalLoop=1;jettySize=auto;html=1;entryX=0.5;entryY=1;entryDx=0;entryDy=0;" parent="1" source="bnBFv9AylUqrLQYS7lNk-4" target="bnBFv9AylUqrLQYS7lNk-1" edge="1">
          <mxGeometry x="0.3636" y="-10" relative="1" as="geometry">
            <mxPoint as="offset" />
          </mxGeometry>
        </mxCell>
        <mxCell id="bnBFv9AylUqrLQYS7lNk-4" value="handler" style="rounded=0;whiteSpace=wrap;html=1;fillColor=#ffe6cc;strokeColor=#d79b00;" parent="1" vertex="1">
          <mxGeometry x="490" y="170" width="80" height="40" as="geometry" />
        </mxCell>
        <mxCell id="bnBFv9AylUqrLQYS7lNk-11" value="引用" style="edgeStyle=orthogonalEdgeStyle;rounded=0;orthogonalLoop=1;jettySize=auto;html=1;entryX=1;entryY=0.5;entryDx=0;entryDy=0;dashed=1;endArrow=none;endFill=0;fontColor=#dcdcdc;strokeColor=#dcdcdc;" parent="1" source="bnBFv9AylUqrLQYS7lNk-10" target="bnBFv9AylUqrLQYS7lNk-2" edge="1">
          <mxGeometry x="0.2" y="-10" relative="1" as="geometry">
            <mxPoint as="offset" />
          </mxGeometry>
        </mxCell>
        <mxCell id="bnBFv9AylUqrLQYS7lNk-12" value="引用" style="edgeStyle=orthogonalEdgeStyle;rounded=0;orthogonalLoop=1;jettySize=auto;html=1;entryX=0;entryY=0.25;entryDx=0;entryDy=0;dashed=1;endArrow=none;endFill=0;verticalAlign=top;horizontal=0;fontColor=#dcdcdc;strokeColor=#dcdcdc;" parent="1" source="bnBFv9AylUqrLQYS7lNk-10" target="bnBFv9AylUqrLQYS7lNk-4" edge="1">
          <mxGeometry x="-0.334" relative="1" as="geometry">
            <Array as="points">
              <mxPoint x="470" y="120" />
              <mxPoint x="470" y="180" />
            </Array>
            <mxPoint as="offset" />
          </mxGeometry>
        </mxCell>
        <mxCell id="bnBFv9AylUqrLQYS7lNk-10" value="http library" style="rounded=0;whiteSpace=wrap;html=1;fillColor=#f5f5f5;strokeColor=#666666;fontColor=#333333;" parent="1" vertex="1">
          <mxGeometry x="374" y="100" width="80" height="40" as="geometry" />
        </mxCell>
        <mxCell id="9iBZ-dJL0owl5ovPCd7c-1" value="" style="rounded=0;whiteSpace=wrap;html=1;" parent="1" vertex="1">
          <mxGeometry x="885" y="30" width="280" height="280" as="geometry" />
        </mxCell>
        <mxCell id="9iBZ-dJL0owl5ovPCd7c-11" value="Request Line" style="text;html=1;align=center;verticalAlign=middle;resizable=0;points=[];autosize=1;strokeColor=none;fillColor=none;" parent="1" vertex="1">
          <mxGeometry x="885" y="70" width="90" height="30" as="geometry" />
        </mxCell>
        <mxCell id="9iBZ-dJL0owl5ovPCd7c-12" value="Header Line1" style="text;html=1;align=center;verticalAlign=middle;resizable=0;points=[];autosize=1;strokeColor=none;fillColor=none;" parent="1" vertex="1">
          <mxGeometry x="880" y="110" width="100" height="30" as="geometry" />
        </mxCell>
        <mxCell id="9iBZ-dJL0owl5ovPCd7c-13" value="Header Line2" style="text;html=1;align=center;verticalAlign=middle;resizable=0;points=[];autosize=1;strokeColor=none;fillColor=none;" parent="1" vertex="1">
          <mxGeometry x="880" y="150" width="100" height="30" as="geometry" />
        </mxCell>
        <mxCell id="9iBZ-dJL0owl5ovPCd7c-14" value="Header Line3" style="text;html=1;align=center;verticalAlign=middle;resizable=0;points=[];autosize=1;strokeColor=none;fillColor=none;" parent="1" vertex="1">
          <mxGeometry x="880" y="190" width="100" height="30" as="geometry" />
        </mxCell>
        <mxCell id="9iBZ-dJL0owl5ovPCd7c-17" value="Empty Line" style="text;html=1;align=center;verticalAlign=middle;resizable=0;points=[];autosize=1;strokeColor=none;fillColor=none;" parent="1" vertex="1">
          <mxGeometry x="890" y="230" width="80" height="30" as="geometry" />
        </mxCell>
        <mxCell id="9iBZ-dJL0owl5ovPCd7c-18" value="Message body" style="text;html=1;align=center;verticalAlign=middle;resizable=0;points=[];autosize=1;strokeColor=none;fillColor=none;" parent="1" vertex="1">
          <mxGeometry x="880" y="270" width="100" height="30" as="geometry" />
        </mxCell>
        <mxCell id="9iBZ-dJL0owl5ovPCd7c-19" value="&lt;b&gt;Structure of an HTTP Request&lt;/b&gt;" style="text;html=1;align=center;verticalAlign=middle;resizable=0;points=[];autosize=1;strokeColor=none;fillColor=none;" parent="1" vertex="1">
          <mxGeometry x="935" y="30" width="190" height="30" as="geometry" />
        </mxCell>
        <mxCell id="9iBZ-dJL0owl5ovPCd7c-21" value="" style="group" parent="1" vertex="1" connectable="0">
          <mxGeometry x="975" y="70" width="180" height="230" as="geometry" />
        </mxCell>
        <mxCell id="9iBZ-dJL0owl5ovPCd7c-3" value="GET /greeting HTTP/1.1" style="rounded=1;whiteSpace=wrap;html=1;fillColor=#fff2cc;strokeColor=#d6b656;" parent="9iBZ-dJL0owl5ovPCd7c-21" vertex="1">
          <mxGeometry width="180" height="30" as="geometry" />
        </mxCell>
        <mxCell id="9iBZ-dJL0owl5ovPCd7c-4" value="Host: localhost:3000" style="rounded=1;whiteSpace=wrap;html=1;fillColor=#f8cecc;strokeColor=#b85450;" parent="9iBZ-dJL0owl5ovPCd7c-21" vertex="1">
          <mxGeometry y="40" width="180" height="30" as="geometry" />
        </mxCell>
        <mxCell id="9iBZ-dJL0owl5ovPCd7c-5" value="User-Agent: curl/7.71.1" style="rounded=1;whiteSpace=wrap;html=1;fillColor=#f8cecc;strokeColor=#b85450;" parent="9iBZ-dJL0owl5ovPCd7c-21" vertex="1">
          <mxGeometry y="80" width="180" height="30" as="geometry" />
        </mxCell>
        <mxCell id="9iBZ-dJL0owl5ovPCd7c-6" value="Accept: */*" style="rounded=1;whiteSpace=wrap;html=1;fillColor=#f8cecc;strokeColor=#b85450;" parent="9iBZ-dJL0owl5ovPCd7c-21" vertex="1">
          <mxGeometry y="120" width="180" height="30" as="geometry" />
        </mxCell>
        <mxCell id="9iBZ-dJL0owl5ovPCd7c-7" value="" style="rounded=1;whiteSpace=wrap;html=1;" parent="9iBZ-dJL0owl5ovPCd7c-21" vertex="1">
          <mxGeometry y="160" width="180" height="30" as="geometry" />
        </mxCell>
        <mxCell id="9iBZ-dJL0owl5ovPCd7c-8" value="xxx..." style="rounded=1;whiteSpace=wrap;html=1;fillColor=#e1d5e7;strokeColor=#9673a6;" parent="9iBZ-dJL0owl5ovPCd7c-21" vertex="1">
          <mxGeometry y="200" width="180" height="30" as="geometry" />
        </mxCell>
        <mxCell id="9iBZ-dJL0owl5ovPCd7c-22" value="&lt;font color=&quot;#007fff&quot; style=&quot;font-size: 7px;&quot;&gt;&lt;b style=&quot;&quot;&gt;Method&lt;/b&gt;&lt;/font&gt;" style="text;html=1;align=center;verticalAlign=middle;resizable=0;points=[];autosize=1;strokeColor=none;fillColor=none;" parent="9iBZ-dJL0owl5ovPCd7c-21" vertex="1">
          <mxGeometry x="12" y="-10" width="50" height="30" as="geometry" />
        </mxCell>
        <mxCell id="9iBZ-dJL0owl5ovPCd7c-31" value="&lt;font color=&quot;#007fff&quot; style=&quot;font-size: 7px;&quot;&gt;&lt;b style=&quot;&quot;&gt;Path&lt;/b&gt;&lt;/font&gt;" style="text;html=1;align=center;verticalAlign=middle;resizable=0;points=[];autosize=1;strokeColor=none;fillColor=none;" parent="9iBZ-dJL0owl5ovPCd7c-21" vertex="1">
          <mxGeometry x="59" y="-10" width="40" height="30" as="geometry" />
        </mxCell>
        <mxCell id="9iBZ-dJL0owl5ovPCd7c-32" value="&lt;font color=&quot;#007fff&quot; style=&quot;font-size: 7px;&quot;&gt;&lt;b style=&quot;&quot;&gt;Version&lt;/b&gt;&lt;/font&gt;" style="text;html=1;align=center;verticalAlign=middle;resizable=0;points=[];autosize=1;strokeColor=none;fillColor=none;" parent="9iBZ-dJL0owl5ovPCd7c-21" vertex="1">
          <mxGeometry x="102" y="-10" width="50" height="30" as="geometry" />
        </mxCell>
        <mxCell id="9iBZ-dJL0owl5ovPCd7c-44" value="&lt;font color=&quot;#007fff&quot; style=&quot;font-size: 7px;&quot;&gt;&lt;b style=&quot;&quot;&gt;Value&lt;/b&gt;&lt;/font&gt;" style="text;html=1;align=center;verticalAlign=middle;resizable=0;points=[];autosize=1;strokeColor=none;fillColor=none;" parent="9iBZ-dJL0owl5ovPCd7c-21" vertex="1">
          <mxGeometry x="80" y="30" width="40" height="30" as="geometry" />
        </mxCell>
        <mxCell id="9iBZ-dJL0owl5ovPCd7c-45" value="&lt;font color=&quot;#007fff&quot; style=&quot;font-size: 7px;&quot;&gt;&lt;b style=&quot;&quot;&gt;Key&lt;/b&gt;&lt;/font&gt;" style="text;html=1;align=center;verticalAlign=middle;resizable=0;points=[];autosize=1;strokeColor=none;fillColor=none;" parent="9iBZ-dJL0owl5ovPCd7c-21" vertex="1">
          <mxGeometry x="30" y="30" width="40" height="30" as="geometry" />
        </mxCell>
        <mxCell id="9iBZ-dJL0owl5ovPCd7c-46" value="&lt;font color=&quot;#007fff&quot; style=&quot;font-size: 7px;&quot;&gt;&lt;b style=&quot;&quot;&gt;Data&lt;/b&gt;&lt;/font&gt;" style="text;html=1;align=center;verticalAlign=middle;resizable=0;points=[];autosize=1;strokeColor=none;fillColor=none;" parent="9iBZ-dJL0owl5ovPCd7c-21" vertex="1">
          <mxGeometry x="65" y="190" width="40" height="30" as="geometry" />
        </mxCell>
        <mxCell id="9iBZ-dJL0owl5ovPCd7c-47" value="&lt;font color=&quot;#007fff&quot;&gt;&lt;span style=&quot;font-size: 7px;&quot;&gt;&lt;b&gt;(optional)&lt;/b&gt;&lt;/span&gt;&lt;/font&gt;" style="text;html=1;align=center;verticalAlign=middle;resizable=0;points=[];autosize=1;strokeColor=none;fillColor=none;" parent="1" vertex="1">
          <mxGeometry x="900" y="280" width="60" height="30" as="geometry" />
        </mxCell>
        <mxCell id="9iBZ-dJL0owl5ovPCd7c-48" value="" style="rounded=0;whiteSpace=wrap;html=1;movable=1;resizable=1;rotatable=1;deletable=1;editable=1;locked=0;connectable=1;" parent="1" vertex="1">
          <mxGeometry x="1210" y="30" width="280" height="280" as="geometry" />
        </mxCell>
        <mxCell id="9iBZ-dJL0owl5ovPCd7c-49" value="Status Line" style="text;html=1;align=center;verticalAlign=middle;resizable=0;points=[];autosize=1;strokeColor=none;fillColor=none;" parent="1" vertex="1">
          <mxGeometry x="1215" y="70" width="80" height="30" as="geometry" />
        </mxCell>
        <mxCell id="9iBZ-dJL0owl5ovPCd7c-50" value="Header Line1" style="text;html=1;align=center;verticalAlign=middle;resizable=0;points=[];autosize=1;strokeColor=none;fillColor=none;" parent="1" vertex="1">
          <mxGeometry x="1205" y="110" width="100" height="30" as="geometry" />
        </mxCell>
        <mxCell id="9iBZ-dJL0owl5ovPCd7c-51" value="Header Line2" style="text;html=1;align=center;verticalAlign=middle;resizable=0;points=[];autosize=1;strokeColor=none;fillColor=none;" parent="1" vertex="1">
          <mxGeometry x="1205" y="150" width="100" height="30" as="geometry" />
        </mxCell>
        <mxCell id="9iBZ-dJL0owl5ovPCd7c-53" value="Empty Line" style="text;html=1;align=center;verticalAlign=middle;resizable=0;points=[];autosize=1;strokeColor=none;fillColor=none;" parent="1" vertex="1">
          <mxGeometry x="1215" y="230" width="80" height="30" as="geometry" />
        </mxCell>
        <mxCell id="9iBZ-dJL0owl5ovPCd7c-54" value="Message body" style="text;html=1;align=center;verticalAlign=middle;resizable=0;points=[];autosize=1;strokeColor=none;fillColor=none;" parent="1" vertex="1">
          <mxGeometry x="1205" y="270" width="100" height="30" as="geometry" />
        </mxCell>
        <mxCell id="9iBZ-dJL0owl5ovPCd7c-55" value="&lt;b&gt;Structure of an HTTP Response&lt;/b&gt;" style="text;html=1;align=center;verticalAlign=middle;resizable=0;points=[];autosize=1;strokeColor=none;fillColor=none;" parent="1" vertex="1">
          <mxGeometry x="1255" y="30" width="200" height="30" as="geometry" />
        </mxCell>
        <mxCell id="9iBZ-dJL0owl5ovPCd7c-56" value="" style="group" parent="1" vertex="1" connectable="0">
          <mxGeometry x="1299" y="70" width="180" height="230" as="geometry" />
        </mxCell>
        <mxCell id="9iBZ-dJL0owl5ovPCd7c-57" value="HTTP/1.1 200 OK" style="rounded=1;whiteSpace=wrap;html=1;fillColor=#fff2cc;strokeColor=#d6b656;" parent="9iBZ-dJL0owl5ovPCd7c-56" vertex="1">
          <mxGeometry width="180" height="30" as="geometry" />
        </mxCell>
        <mxCell id="9iBZ-dJL0owl5ovPCd7c-58" value="Content-type: text/html" style="rounded=1;whiteSpace=wrap;html=1;fillColor=#f8cecc;strokeColor=#b85450;" parent="9iBZ-dJL0owl5ovPCd7c-56" vertex="1">
          <mxGeometry y="40" width="180" height="30" as="geometry" />
        </mxCell>
        <mxCell id="9iBZ-dJL0owl5ovPCd7c-59" value="Content-Length:30" style="rounded=1;whiteSpace=wrap;html=1;fillColor=#f8cecc;strokeColor=#b85450;" parent="9iBZ-dJL0owl5ovPCd7c-56" vertex="1">
          <mxGeometry y="80" width="180" height="30" as="geometry" />
        </mxCell>
        <mxCell id="9iBZ-dJL0owl5ovPCd7c-61" value="" style="rounded=1;whiteSpace=wrap;html=1;" parent="9iBZ-dJL0owl5ovPCd7c-56" vertex="1">
          <mxGeometry y="160" width="180" height="30" as="geometry" />
        </mxCell>
        <mxCell id="9iBZ-dJL0owl5ovPCd7c-62" value="Hello, this is a message body." style="rounded=1;whiteSpace=wrap;html=1;fillColor=#e1d5e7;strokeColor=#9673a6;" parent="9iBZ-dJL0owl5ovPCd7c-56" vertex="1">
          <mxGeometry y="200" width="180" height="30" as="geometry" />
        </mxCell>
        <mxCell id="9iBZ-dJL0owl5ovPCd7c-65" value="&lt;font color=&quot;#007fff&quot; style=&quot;font-size: 7px;&quot;&gt;&lt;b style=&quot;&quot;&gt;Version&lt;/b&gt;&lt;/font&gt;" style="text;html=1;align=center;verticalAlign=middle;resizable=0;points=[];autosize=1;strokeColor=none;fillColor=none;" parent="9iBZ-dJL0owl5ovPCd7c-56" vertex="1">
          <mxGeometry x="42" y="-10" width="50" height="30" as="geometry" />
        </mxCell>
        <mxCell id="9iBZ-dJL0owl5ovPCd7c-66" value="&lt;font color=&quot;#007fff&quot; style=&quot;font-size: 7px;&quot;&gt;&lt;b style=&quot;&quot;&gt;Value&lt;/b&gt;&lt;/font&gt;" style="text;html=1;align=center;verticalAlign=middle;resizable=0;points=[];autosize=1;strokeColor=none;fillColor=none;" parent="9iBZ-dJL0owl5ovPCd7c-56" vertex="1">
          <mxGeometry x="103" y="30" width="40" height="30" as="geometry" />
        </mxCell>
        <mxCell id="9iBZ-dJL0owl5ovPCd7c-67" value="&lt;font color=&quot;#007fff&quot; style=&quot;font-size: 7px;&quot;&gt;&lt;b style=&quot;&quot;&gt;Key&lt;/b&gt;&lt;/font&gt;" style="text;html=1;align=center;verticalAlign=middle;resizable=0;points=[];autosize=1;strokeColor=none;fillColor=none;" parent="9iBZ-dJL0owl5ovPCd7c-56" vertex="1">
          <mxGeometry x="30" y="30" width="40" height="30" as="geometry" />
        </mxCell>
        <mxCell id="9iBZ-dJL0owl5ovPCd7c-68" value="&lt;font color=&quot;#007fff&quot; style=&quot;font-size: 7px;&quot;&gt;&lt;b style=&quot;&quot;&gt;Data&lt;/b&gt;&lt;/font&gt;" style="text;html=1;align=center;verticalAlign=middle;resizable=0;points=[];autosize=1;strokeColor=none;fillColor=none;" parent="9iBZ-dJL0owl5ovPCd7c-56" vertex="1">
          <mxGeometry x="65" y="190" width="40" height="30" as="geometry" />
        </mxCell>
        <mxCell id="9iBZ-dJL0owl5ovPCd7c-63" value="&lt;font color=&quot;#007fff&quot; style=&quot;font-size: 7px;&quot;&gt;&lt;b style=&quot;&quot;&gt;Status code&lt;/b&gt;&lt;/font&gt;" style="text;html=1;align=center;verticalAlign=middle;resizable=0;points=[];autosize=1;strokeColor=none;fillColor=none;" parent="9iBZ-dJL0owl5ovPCd7c-56" vertex="1">
          <mxGeometry x="77" y="7" width="60" height="30" as="geometry" />
        </mxCell>
        <mxCell id="9iBZ-dJL0owl5ovPCd7c-64" value="&lt;font color=&quot;#007fff&quot;&gt;&lt;span style=&quot;font-size: 7px;&quot;&gt;&lt;b&gt;Status text&lt;/b&gt;&lt;/span&gt;&lt;/font&gt;" style="text;html=1;align=center;verticalAlign=middle;resizable=0;points=[];autosize=1;strokeColor=none;fillColor=none;" parent="9iBZ-dJL0owl5ovPCd7c-56" vertex="1">
          <mxGeometry x="101" y="-10" width="60" height="30" as="geometry" />
        </mxCell>
        <mxCell id="9iBZ-dJL0owl5ovPCd7c-69" value="&lt;font color=&quot;#007fff&quot;&gt;&lt;span style=&quot;font-size: 7px;&quot;&gt;&lt;b&gt;(optional)&lt;/b&gt;&lt;/span&gt;&lt;/font&gt;" style="text;html=1;align=center;verticalAlign=middle;resizable=0;points=[];autosize=1;strokeColor=none;fillColor=none;" parent="1" vertex="1">
          <mxGeometry x="1225" y="280" width="60" height="30" as="geometry" />
        </mxCell>
        <mxCell id="gUNHapDYRPtvfUM0zRov-1" value="" style="rounded=0;whiteSpace=wrap;html=1;fillColor=#dae8fc;strokeColor=#6c8ebf;" parent="1" vertex="1">
          <mxGeometry x="280" y="290" width="280" height="180" as="geometry" />
        </mxCell>
        <mxCell id="gUNHapDYRPtvfUM0zRov-3" value="client" style="rounded=0;whiteSpace=wrap;html=1;fillColor=#dae8fc;strokeColor=#6c8ebf;" parent="1" vertex="1">
          <mxGeometry x="60" y="360" width="80" height="40" as="geometry" />
        </mxCell>
        <mxCell id="gUNHapDYRPtvfUM0zRov-8" value="4 返回响应" style="edgeStyle=orthogonalEdgeStyle;rounded=0;orthogonalLoop=1;jettySize=auto;html=1;entryX=0.5;entryY=1;entryDx=0;entryDy=0;exitX=0;exitY=0.5;exitDx=0;exitDy=0;labelBackgroundColor=none;" parent="1" source="iVMmtLjEw8pmVbwaYtLP-6" target="gUNHapDYRPtvfUM0zRov-3" edge="1">
          <mxGeometry x="0.3171" y="-10" relative="1" as="geometry">
            <mxPoint as="offset" />
            <mxPoint x="280" y="559.9985714285715" as="sourcePoint" />
            <mxPoint x="60" y="539.97" as="targetPoint" />
          </mxGeometry>
        </mxCell>
        <mxCell id="gUNHapDYRPtvfUM0zRov-13" value="Actix&lt;br&gt;HTTP&lt;br&gt;Server" style="text;html=1;align=center;verticalAlign=middle;resizable=0;points=[];autosize=1;strokeColor=none;fillColor=none;spacing=0;" parent="1" vertex="1">
          <mxGeometry x="229" y="355" width="50" height="50" as="geometry" />
        </mxCell>
        <mxCell id="gUNHapDYRPtvfUM0zRov-15" value="Actix App" style="text;html=1;align=center;verticalAlign=middle;resizable=0;points=[];autosize=1;strokeColor=none;fillColor=none;spacing=0;" parent="1" vertex="1">
          <mxGeometry x="385" y="290" width="70" height="20" as="geometry" />
        </mxCell>
        <mxCell id="iVMmtLjEw8pmVbwaYtLP-4" value="Actix Router" style="rounded=0;whiteSpace=wrap;html=1;fillColor=#ffe6cc;strokeColor=#d79b00;" parent="1" vertex="1">
          <mxGeometry x="470" y="300" width="80" height="40" as="geometry" />
        </mxCell>
        <mxCell id="iVMmtLjEw8pmVbwaYtLP-5" value="3 决定调用" style="edgeStyle=orthogonalEdgeStyle;rounded=0;orthogonalLoop=1;jettySize=auto;html=1;labelPosition=center;verticalLabelPosition=middle;align=center;verticalAlign=middle;horizontal=0;entryX=0.5;entryY=0;entryDx=0;entryDy=0;labelBorderColor=none;labelBackgroundColor=none;" parent="1" source="iVMmtLjEw8pmVbwaYtLP-4" target="iVMmtLjEw8pmVbwaYtLP-6" edge="1">
          <mxGeometry y="10" relative="1" as="geometry">
            <mxPoint as="offset" />
            <mxPoint x="730" y="340" as="sourcePoint" />
            <mxPoint x="730" y="440" as="targetPoint" />
          </mxGeometry>
        </mxCell>
        <mxCell id="iVMmtLjEw8pmVbwaYtLP-6" value="Actix Handler" style="rounded=0;whiteSpace=wrap;html=1;fillColor=#ffe6cc;strokeColor=#d79b00;" parent="1" vertex="1">
          <mxGeometry x="470" y="420" width="80" height="40" as="geometry" />
        </mxCell>
        <mxCell id="iVMmtLjEw8pmVbwaYtLP-7" value="1 发出请求" style="edgeStyle=orthogonalEdgeStyle;rounded=0;orthogonalLoop=1;jettySize=auto;html=1;entryX=0;entryY=0.5;entryDx=0;entryDy=0;exitX=0.5;exitY=0;exitDx=0;exitDy=0;labelBackgroundColor=none;" parent="1" source="gUNHapDYRPtvfUM0zRov-3" target="iVMmtLjEw8pmVbwaYtLP-4" edge="1">
          <mxGeometry x="-0.3173" y="10" relative="1" as="geometry">
            <mxPoint as="offset" />
            <mxPoint x="620" y="530" as="sourcePoint" />
            <mxPoint x="730" y="530" as="targetPoint" />
          </mxGeometry>
        </mxCell>
        <mxCell id="gUNHapDYRPtvfUM0zRov-14" value="&lt;font style=&quot;font-size: 10px;&quot; color=&quot;#007fff&quot;&gt;&lt;b&gt;GET /health&lt;/b&gt;&lt;/font&gt;" style="text;html=1;align=center;verticalAlign=middle;resizable=0;points=[];autosize=1;strokeColor=none;fillColor=none;spacing=0;" parent="1" vertex="1">
          <mxGeometry x="470" y="297" width="80" height="20" as="geometry" />
        </mxCell>
        <mxCell id="iVMmtLjEw8pmVbwaYtLP-8" value="&lt;font style=&quot;font-size: 10px;&quot; color=&quot;#007fff&quot;&gt;&lt;b&gt;health_check_handler()&lt;/b&gt;&lt;/font&gt;" style="text;html=1;align=center;verticalAlign=middle;resizable=0;points=[];autosize=1;strokeColor=none;fillColor=none;spacing=0;" parent="1" vertex="1">
          <mxGeometry x="434" y="440" width="130" height="20" as="geometry" />
        </mxCell>
        <mxCell id="iVMmtLjEw8pmVbwaYtLP-9" value="" style="rounded=0;whiteSpace=wrap;html=1;fillColor=#ffe6cc;strokeColor=#d79b00;" parent="1" vertex="1">
          <mxGeometry x="230" y="520" width="350" height="200" as="geometry" />
        </mxCell>
        <mxCell id="iVMmtLjEw8pmVbwaYtLP-10" value="" style="rounded=0;whiteSpace=wrap;html=1;fillColor=#dae8fc;strokeColor=#6c8ebf;" parent="1" vertex="1">
          <mxGeometry x="250" y="530" width="280" height="180" as="geometry" />
        </mxCell>
        <mxCell id="iVMmtLjEw8pmVbwaYtLP-11" value="client" style="rounded=0;whiteSpace=wrap;html=1;fillColor=#dae8fc;strokeColor=#6c8ebf;" parent="1" vertex="1">
          <mxGeometry x="60" y="600" width="80" height="40" as="geometry" />
        </mxCell>
        <mxCell id="iVMmtLjEw8pmVbwaYtLP-13" value="Actix&lt;br&gt;HTTP&lt;br&gt;Server" style="text;html=1;align=center;verticalAlign=middle;resizable=0;points=[];autosize=1;strokeColor=none;fillColor=none;spacing=0;" parent="1" vertex="1">
          <mxGeometry x="530" y="595" width="50" height="50" as="geometry" />
        </mxCell>
        <mxCell id="iVMmtLjEw8pmVbwaYtLP-14" value="Actix App" style="text;html=1;align=center;verticalAlign=middle;resizable=0;points=[];autosize=1;strokeColor=none;fillColor=none;spacing=0;" parent="1" vertex="1">
          <mxGeometry x="355" y="530" width="70" height="20" as="geometry" />
        </mxCell>
        <mxCell id="iVMmtLjEw8pmVbwaYtLP-15" value="&lt;font style=&quot;font-size: 10px;&quot;&gt;POST A course&lt;/font&gt;" style="rounded=0;whiteSpace=wrap;html=1;fillColor=#ffe6cc;strokeColor=#d79b00;" parent="1" vertex="1">
          <mxGeometry x="275" y="550" width="80" height="20" as="geometry" />
        </mxCell>
        <mxCell id="iVMmtLjEw8pmVbwaYtLP-17" value="&lt;font style=&quot;font-size: 10px;&quot;&gt;Actix Handler&lt;/font&gt;" style="rounded=0;whiteSpace=wrap;html=1;fillColor=#ffe6cc;strokeColor=#d79b00;" parent="1" vertex="1">
          <mxGeometry x="434" y="550" width="80" height="20" as="geometry" />
        </mxCell>
        <mxCell id="iVMmtLjEw8pmVbwaYtLP-26" value="&lt;font style=&quot;font-size: 10px;&quot;&gt;GET A course&lt;/font&gt;" style="rounded=0;whiteSpace=wrap;html=1;fillColor=#ffe6cc;strokeColor=#d79b00;" parent="1" vertex="1">
          <mxGeometry x="275" y="585" width="80" height="20" as="geometry" />
        </mxCell>
        <mxCell id="iVMmtLjEw8pmVbwaYtLP-28" value="&lt;font style=&quot;font-size: 10px;&quot;&gt;GET all course&lt;/font&gt;" style="rounded=0;whiteSpace=wrap;html=1;fillColor=#ffe6cc;strokeColor=#d79b00;" parent="1" vertex="1">
          <mxGeometry x="275" y="620" width="80" height="20" as="geometry" />
        </mxCell>
        <mxCell id="iVMmtLjEw8pmVbwaYtLP-31" value="内存" style="rounded=0;whiteSpace=wrap;html=1;fillColor=#e1d5e7;strokeColor=#9673a6;" parent="1" vertex="1">
          <mxGeometry x="434" y="670" width="80" height="20" as="geometry" />
        </mxCell>
        <mxCell id="iVMmtLjEw8pmVbwaYtLP-33" value="" style="endArrow=classic;startArrow=classic;html=1;rounded=0;exitX=1;exitY=0.5;exitDx=0;exitDy=0;entryX=0;entryY=0.5;entryDx=0;entryDy=0;" parent="1" source="iVMmtLjEw8pmVbwaYtLP-15" target="iVMmtLjEw8pmVbwaYtLP-17" edge="1">
          <mxGeometry width="50" height="50" relative="1" as="geometry">
            <mxPoint x="370" y="650" as="sourcePoint" />
            <mxPoint x="420" y="600" as="targetPoint" />
          </mxGeometry>
        </mxCell>
        <mxCell id="iVMmtLjEw8pmVbwaYtLP-35" value="" style="endArrow=classic;startArrow=classic;html=1;rounded=0;entryX=0;entryY=0.5;entryDx=0;entryDy=0;" parent="1" source="iVMmtLjEw8pmVbwaYtLP-26" target="iVMmtLjEw8pmVbwaYtLP-27" edge="1">
          <mxGeometry width="50" height="50" relative="1" as="geometry">
            <mxPoint x="370" y="650" as="sourcePoint" />
            <mxPoint x="420" y="600" as="targetPoint" />
          </mxGeometry>
        </mxCell>
        <mxCell id="iVMmtLjEw8pmVbwaYtLP-36" value="" style="endArrow=classic;startArrow=classic;html=1;rounded=0;entryX=0;entryY=0.5;entryDx=0;entryDy=0;exitX=1;exitY=0.5;exitDx=0;exitDy=0;" parent="1" source="iVMmtLjEw8pmVbwaYtLP-28" target="iVMmtLjEw8pmVbwaYtLP-29" edge="1">
          <mxGeometry width="50" height="50" relative="1" as="geometry">
            <mxPoint x="370" y="650" as="sourcePoint" />
            <mxPoint x="420" y="600" as="targetPoint" />
          </mxGeometry>
        </mxCell>
        <mxCell id="iVMmtLjEw8pmVbwaYtLP-37" value="" style="endArrow=classic;html=1;rounded=0;exitX=1;exitY=0.5;exitDx=0;exitDy=0;entryX=0;entryY=0.5;entryDx=0;entryDy=0;" parent="1" source="iVMmtLjEw8pmVbwaYtLP-11" target="iVMmtLjEw8pmVbwaYtLP-10" edge="1">
          <mxGeometry width="50" height="50" relative="1" as="geometry">
            <mxPoint x="370" y="650" as="sourcePoint" />
            <mxPoint x="420" y="600" as="targetPoint" />
          </mxGeometry>
        </mxCell>
        <mxCell id="iVMmtLjEw8pmVbwaYtLP-38" value="" style="endArrow=classic;html=1;rounded=0;" parent="1" edge="1">
          <mxGeometry width="50" height="50" relative="1" as="geometry">
            <mxPoint x="450" y="570" as="sourcePoint" />
            <mxPoint x="450" y="670" as="targetPoint" />
          </mxGeometry>
        </mxCell>
        <mxCell id="iVMmtLjEw8pmVbwaYtLP-39" value="" style="endArrow=classic;html=1;rounded=0;exitX=0.5;exitY=1;exitDx=0;exitDy=0;" parent="1" source="iVMmtLjEw8pmVbwaYtLP-27" target="iVMmtLjEw8pmVbwaYtLP-31" edge="1">
          <mxGeometry width="50" height="50" relative="1" as="geometry">
            <mxPoint x="610" y="630" as="sourcePoint" />
            <mxPoint x="600" y="670" as="targetPoint" />
          </mxGeometry>
        </mxCell>
        <mxCell id="iVMmtLjEw8pmVbwaYtLP-40" value="" style="endArrow=classic;html=1;rounded=0;" parent="1" edge="1">
          <mxGeometry width="50" height="50" relative="1" as="geometry">
            <mxPoint x="498.8" y="640" as="sourcePoint" />
            <mxPoint x="498.8" y="670" as="targetPoint" />
          </mxGeometry>
        </mxCell>
        <mxCell id="iVMmtLjEw8pmVbwaYtLP-29" value="&lt;font style=&quot;font-size: 10px;&quot;&gt;Actix Handler&lt;/font&gt;" style="rounded=0;whiteSpace=wrap;html=1;fillColor=#ffe6cc;strokeColor=#d79b00;" parent="1" vertex="1">
          <mxGeometry x="434" y="620" width="80" height="20" as="geometry" />
        </mxCell>
        <mxCell id="iVMmtLjEw8pmVbwaYtLP-27" value="&lt;font style=&quot;font-size: 10px;&quot;&gt;Actix Handler&lt;/font&gt;" style="rounded=0;whiteSpace=wrap;html=1;fillColor=#ffe6cc;strokeColor=#d79b00;" parent="1" vertex="1">
          <mxGeometry x="434" y="585" width="80" height="20" as="geometry" />
        </mxCell>
        <mxCell id="iVMmtLjEw8pmVbwaYtLP-41" value="" style="endArrow=classic;html=1;rounded=0;" parent="1" edge="1">
          <mxGeometry width="50" height="50" relative="1" as="geometry">
            <mxPoint x="250" y="680" as="sourcePoint" />
            <mxPoint x="99" y="640" as="targetPoint" />
            <Array as="points">
              <mxPoint x="99" y="680" />
            </Array>
          </mxGeometry>
        </mxCell>
        <mxCell id="LvXVNaWHWUKS7mq7CPCq-8" style="edgeStyle=orthogonalEdgeStyle;rounded=0;orthogonalLoop=1;jettySize=auto;html=1;entryX=0;entryY=0.5;entryDx=0;entryDy=0;" parent="1" source="LvXVNaWHWUKS7mq7CPCq-1" target="LvXVNaWHWUKS7mq7CPCq-7" edge="1">
          <mxGeometry relative="1" as="geometry">
            <Array as="points">
              <mxPoint x="1070" y="455" />
              <mxPoint x="1070" y="540" />
            </Array>
          </mxGeometry>
        </mxCell>
        <mxCell id="LvXVNaWHWUKS7mq7CPCq-1" value="数据库" style="rounded=0;whiteSpace=wrap;html=1;fillColor=#dae8fc;strokeColor=#6c8ebf;" parent="1" vertex="1">
          <mxGeometry x="870" y="440" width="90" height="30" as="geometry" />
        </mxCell>
        <mxCell id="LvXVNaWHWUKS7mq7CPCq-9" style="edgeStyle=orthogonalEdgeStyle;rounded=0;orthogonalLoop=1;jettySize=auto;html=1;entryX=0;entryY=0.5;entryDx=0;entryDy=0;" parent="1" source="LvXVNaWHWUKS7mq7CPCq-2" target="LvXVNaWHWUKS7mq7CPCq-7" edge="1">
          <mxGeometry relative="1" as="geometry">
            <Array as="points">
              <mxPoint x="1070" y="495" />
              <mxPoint x="1070" y="540" />
            </Array>
          </mxGeometry>
        </mxCell>
        <mxCell id="LvXVNaWHWUKS7mq7CPCq-2" value="串行化" style="rounded=0;whiteSpace=wrap;html=1;fillColor=#dae8fc;strokeColor=#6c8ebf;" parent="1" vertex="1">
          <mxGeometry x="870" y="480" width="90" height="30" as="geometry" />
        </mxCell>
        <mxCell id="LvXVNaWHWUKS7mq7CPCq-14" style="edgeStyle=orthogonalEdgeStyle;rounded=0;orthogonalLoop=1;jettySize=auto;html=1;entryX=0;entryY=0.5;entryDx=0;entryDy=0;" parent="1" source="LvXVNaWHWUKS7mq7CPCq-3" target="LvXVNaWHWUKS7mq7CPCq-7" edge="1">
          <mxGeometry relative="1" as="geometry">
            <Array as="points">
              <mxPoint x="1020" y="540" />
              <mxPoint x="1020" y="540" />
            </Array>
          </mxGeometry>
        </mxCell>
        <mxCell id="LvXVNaWHWUKS7mq7CPCq-3" value="IO操作" style="rounded=0;whiteSpace=wrap;html=1;fillColor=#dae8fc;strokeColor=#6c8ebf;" parent="1" vertex="1">
          <mxGeometry x="870" y="520" width="90" height="30" as="geometry" />
        </mxCell>
        <mxCell id="LvXVNaWHWUKS7mq7CPCq-15" style="edgeStyle=orthogonalEdgeStyle;rounded=0;orthogonalLoop=1;jettySize=auto;html=1;entryX=0;entryY=0.5;entryDx=0;entryDy=0;" parent="1" source="LvXVNaWHWUKS7mq7CPCq-4" target="LvXVNaWHWUKS7mq7CPCq-7" edge="1">
          <mxGeometry relative="1" as="geometry">
            <Array as="points">
              <mxPoint x="1070" y="575" />
              <mxPoint x="1070" y="540" />
            </Array>
          </mxGeometry>
        </mxCell>
        <mxCell id="LvXVNaWHWUKS7mq7CPCq-4" value="Actix-Web库" style="rounded=0;whiteSpace=wrap;html=1;fillColor=#dae8fc;strokeColor=#6c8ebf;" parent="1" vertex="1">
          <mxGeometry x="870" y="560" width="90" height="30" as="geometry" />
        </mxCell>
        <mxCell id="LvXVNaWHWUKS7mq7CPCq-16" style="edgeStyle=orthogonalEdgeStyle;rounded=0;orthogonalLoop=1;jettySize=auto;html=1;entryX=0;entryY=0.5;entryDx=0;entryDy=0;" parent="1" source="LvXVNaWHWUKS7mq7CPCq-5" target="LvXVNaWHWUKS7mq7CPCq-7" edge="1">
          <mxGeometry relative="1" as="geometry">
            <Array as="points">
              <mxPoint x="1070" y="615" />
              <mxPoint x="1070" y="540" />
            </Array>
          </mxGeometry>
        </mxCell>
        <mxCell id="LvXVNaWHWUKS7mq7CPCq-5" value="用户非法输入" style="rounded=0;whiteSpace=wrap;html=1;fillColor=#dae8fc;strokeColor=#6c8ebf;" parent="1" vertex="1">
          <mxGeometry x="870" y="600" width="90" height="30" as="geometry" />
        </mxCell>
        <mxCell id="LvXVNaWHWUKS7mq7CPCq-18" value="自定义错误转为 HTTP Response" style="edgeStyle=orthogonalEdgeStyle;rounded=0;orthogonalLoop=1;jettySize=auto;html=1;" parent="1" source="LvXVNaWHWUKS7mq7CPCq-7" edge="1">
          <mxGeometry x="-0.0019" y="10" relative="1" as="geometry">
            <mxPoint x="1440" y="540" as="targetPoint" />
            <mxPoint x="-8" y="-10" as="offset" />
          </mxGeometry>
        </mxCell>
        <mxCell id="LvXVNaWHWUKS7mq7CPCq-7" value="自定义&lt;br&gt;错误类型" style="rounded=0;whiteSpace=wrap;html=1;fillColor=#f8cecc;strokeColor=#b85450;" parent="1" vertex="1">
          <mxGeometry x="1105" y="510" width="90" height="60" as="geometry" />
        </mxCell>
        <mxCell id="LvXVNaWHWUKS7mq7CPCq-17" value="Actix Web Service" style="text;html=1;align=center;verticalAlign=middle;resizable=0;points=[];autosize=1;strokeColor=none;fillColor=none;" parent="1" vertex="1">
          <mxGeometry x="1090" y="600" width="120" height="30" as="geometry" />
        </mxCell>
        <mxCell id="LvXVNaWHWUKS7mq7CPCq-20" value="&lt;font style=&quot;font-size: 9px;&quot;&gt;数据库错误&lt;/font&gt;" style="text;html=1;align=center;verticalAlign=middle;resizable=0;points=[];autosize=1;strokeColor=none;fillColor=none;spacing=0;" parent="1" vertex="1">
          <mxGeometry x="991" y="434" width="60" height="20" as="geometry" />
        </mxCell>
        <mxCell id="LvXVNaWHWUKS7mq7CPCq-21" value="&lt;font style=&quot;font-size: 9px;&quot;&gt;serde错误&lt;/font&gt;" style="text;html=1;align=center;verticalAlign=middle;resizable=0;points=[];autosize=1;strokeColor=none;fillColor=none;spacing=0;" parent="1" vertex="1">
          <mxGeometry x="990" y="474" width="60" height="20" as="geometry" />
        </mxCell>
        <mxCell id="LvXVNaWHWUKS7mq7CPCq-22" value="&lt;font style=&quot;font-size: 9px;&quot;&gt;IO错误&lt;/font&gt;" style="text;html=1;align=center;verticalAlign=middle;resizable=0;points=[];autosize=1;strokeColor=none;fillColor=none;spacing=0;" parent="1" vertex="1">
          <mxGeometry x="992" y="520" width="50" height="20" as="geometry" />
        </mxCell>
        <mxCell id="LvXVNaWHWUKS7mq7CPCq-23" value="&lt;font style=&quot;font-size: 9px;&quot;&gt;Actix错误&lt;/font&gt;" style="text;html=1;align=center;verticalAlign=middle;resizable=0;points=[];autosize=1;strokeColor=none;fillColor=none;spacing=0;" parent="1" vertex="1">
          <mxGeometry x="986" y="555" width="60" height="20" as="geometry" />
        </mxCell>
        <mxCell id="LvXVNaWHWUKS7mq7CPCq-24" value="&lt;font style=&quot;font-size: 9px;&quot;&gt;用户非法输入错误&lt;/font&gt;" style="text;html=1;align=center;verticalAlign=middle;resizable=0;points=[];autosize=1;strokeColor=none;fillColor=none;spacing=0;" parent="1" vertex="1">
          <mxGeometry x="971" y="595" width="90" height="20" as="geometry" />
        </mxCell>
        <mxCell id="LvXVNaWHWUKS7mq7CPCq-29" value="client" style="rounded=0;whiteSpace=wrap;html=1;fillColor=#dae8fc;strokeColor=#6c8ebf;" parent="1" vertex="1">
          <mxGeometry x="25" y="877.96" width="80" height="40" as="geometry" />
        </mxCell>
        <mxCell id="LvXVNaWHWUKS7mq7CPCq-54" value="" style="rounded=0;whiteSpace=wrap;html=1;fillColor=#ffe6cc;strokeColor=#d79b00;container=0;" parent="1" vertex="1">
          <mxGeometry x="135" y="780" width="680" height="220" as="geometry" />
        </mxCell>
        <mxCell id="LvXVNaWHWUKS7mq7CPCq-61" value="Actix&lt;br&gt;HTTP&lt;br&gt;Server" style="text;html=1;align=center;verticalAlign=middle;resizable=0;points=[];autosize=1;strokeColor=none;fillColor=none;spacing=0;container=0;" parent="1" vertex="1">
          <mxGeometry x="763.1503105590062" y="864.9955562478675" width="50" height="50" as="geometry" />
        </mxCell>
        <mxCell id="LvXVNaWHWUKS7mq7CPCq-55" value="" style="rounded=0;whiteSpace=wrap;html=1;fillColor=#dae8fc;strokeColor=#6c8ebf;container=0;" parent="1" vertex="1">
          <mxGeometry x="153.14999999999998" y="790" width="610" height="200" as="geometry" />
        </mxCell>
        <mxCell id="LvXVNaWHWUKS7mq7CPCq-56" value="PostgreSQL" style="rounded=0;whiteSpace=wrap;html=1;fillColor=#e1d5e7;strokeColor=#9673a6;container=0;" parent="1" vertex="1">
          <mxGeometry x="549.0047763736353" y="945.5150281171224" width="202.30522362636466" height="36.18497188287761" as="geometry" />
        </mxCell>
        <mxCell id="LvXVNaWHWUKS7mq7CPCq-63" value="" style="endArrow=classic;html=1;rounded=0;" parent="1" edge="1">
          <mxGeometry width="50" height="50" relative="1" as="geometry">
            <mxPoint x="590.2915567055463" y="853.9075043630017" as="sourcePoint" />
            <mxPoint x="590.2915567055463" y="945.5150281171224" as="targetPoint" />
          </mxGeometry>
        </mxCell>
        <mxCell id="LvXVNaWHWUKS7mq7CPCq-64" value="" style="endArrow=classic;html=1;rounded=0;exitX=0.5;exitY=1;exitDx=0;exitDy=0;" parent="1" edge="1">
          <mxGeometry width="50" height="50" relative="1" as="geometry">
            <mxPoint x="652.2217272034131" y="886.8862129144852" as="sourcePoint" />
            <mxPoint x="652.2217272034131" y="946.4311033546635" as="targetPoint" />
          </mxGeometry>
        </mxCell>
        <mxCell id="LvXVNaWHWUKS7mq7CPCq-65" value="" style="endArrow=classic;html=1;rounded=0;" parent="1" edge="1">
          <mxGeometry width="50" height="50" relative="1" as="geometry">
            <mxPoint x="714.1518977012798" y="918.0327709908861" as="sourcePoint" />
            <mxPoint x="714.1518977012798" y="945.5150281171224" as="targetPoint" />
          </mxGeometry>
        </mxCell>
        <mxCell id="LvXVNaWHWUKS7mq7CPCq-67" value="Routes" style="text;html=1;align=center;verticalAlign=middle;resizable=0;points=[];autosize=1;strokeColor=none;fillColor=none;spacing=0;container=0;" parent="1" vertex="1">
          <mxGeometry x="221.21884111601696" y="800" width="60" height="20" as="geometry" />
        </mxCell>
        <mxCell id="LvXVNaWHWUKS7mq7CPCq-68" value="Handlers" style="text;html=1;align=center;verticalAlign=middle;resizable=0;points=[];autosize=1;strokeColor=none;fillColor=none;spacing=0;container=0;" parent="1" vertex="1">
          <mxGeometry x="416.2277857315113" y="800" width="70" height="20" as="geometry" />
        </mxCell>
        <mxCell id="LvXVNaWHWUKS7mq7CPCq-69" value="DB Access" style="text;html=1;align=center;verticalAlign=middle;resizable=0;points=[];autosize=1;strokeColor=none;fillColor=none;spacing=0;container=0;" parent="1" vertex="1">
          <mxGeometry x="610.1547256450697" y="800" width="80" height="20" as="geometry" />
        </mxCell>
        <mxCell id="LvXVNaWHWUKS7mq7CPCq-32" value="&lt;font style=&quot;font-size: 10px;&quot;&gt;POST /courses&lt;/font&gt;" style="rounded=0;whiteSpace=wrap;html=1;fillColor=#ffe6cc;strokeColor=#d79b00;container=0;" parent="1" vertex="1">
          <mxGeometry x="165" y="832.3445026178011" width="172.44644160731954" height="19.026178010471185" as="geometry" />
        </mxCell>
        <mxCell id="LvXVNaWHWUKS7mq7CPCq-33" value="&lt;font style=&quot;font-size: 10px;&quot;&gt;post_new_course&lt;/font&gt;" style="rounded=0;whiteSpace=wrap;html=1;fillColor=#ffe6cc;strokeColor=#d79b00;container=0;" parent="1" vertex="1">
          <mxGeometry x="364.99966241097934" y="832.3445026178011" width="172.44644160731954" height="19.026178010471185" as="geometry" />
        </mxCell>
        <mxCell id="LvXVNaWHWUKS7mq7CPCq-47" style="edgeStyle=orthogonalEdgeStyle;rounded=0;orthogonalLoop=1;jettySize=auto;html=1;entryX=0;entryY=0.5;entryDx=0;entryDy=0;" parent="1" source="LvXVNaWHWUKS7mq7CPCq-32" target="LvXVNaWHWUKS7mq7CPCq-33" edge="1">
          <mxGeometry relative="1" as="geometry" />
        </mxCell>
        <mxCell id="LvXVNaWHWUKS7mq7CPCq-34" value="&lt;font style=&quot;font-size: 10px;&quot;&gt;GET /courses/{teacher_id}/{course_id}&lt;/font&gt;" style="rounded=0;whiteSpace=wrap;html=1;fillColor=#ffe6cc;strokeColor=#d79b00;container=0;" parent="1" vertex="1">
          <mxGeometry x="165" y="865.6403141361257" width="172.44644160731954" height="19.026178010471185" as="geometry" />
        </mxCell>
        <mxCell id="LvXVNaWHWUKS7mq7CPCq-35" value="&lt;font style=&quot;font-size: 10px;&quot;&gt;GET /courses/{teacher_id}&lt;/font&gt;" style="rounded=0;whiteSpace=wrap;html=1;fillColor=#ffe6cc;strokeColor=#d79b00;container=0;" parent="1" vertex="1">
          <mxGeometry x="165" y="898.9361256544502" width="172.44644160731954" height="19.026178010471185" as="geometry" />
        </mxCell>
        <mxCell id="LvXVNaWHWUKS7mq7CPCq-44" value="&lt;font style=&quot;font-size: 10px;&quot;&gt;get_courses_for_teacher&lt;/font&gt;" style="rounded=0;whiteSpace=wrap;html=1;fillColor=#ffe6cc;strokeColor=#d79b00;container=0;" parent="1" vertex="1">
          <mxGeometry x="364.99966241097934" y="898.9361256544502" width="172.44644160731954" height="19.026178010471185" as="geometry" />
        </mxCell>
        <mxCell id="LvXVNaWHWUKS7mq7CPCq-49" style="edgeStyle=orthogonalEdgeStyle;rounded=0;orthogonalLoop=1;jettySize=auto;html=1;entryX=0;entryY=0.5;entryDx=0;entryDy=0;" parent="1" source="LvXVNaWHWUKS7mq7CPCq-35" target="LvXVNaWHWUKS7mq7CPCq-44" edge="1">
          <mxGeometry relative="1" as="geometry" />
        </mxCell>
        <mxCell id="LvXVNaWHWUKS7mq7CPCq-45" value="&lt;font style=&quot;font-size: 10px;&quot;&gt;get_course_detail&lt;/font&gt;" style="rounded=0;whiteSpace=wrap;html=1;fillColor=#ffe6cc;strokeColor=#d79b00;container=0;" parent="1" vertex="1">
          <mxGeometry x="364.99966241097934" y="865.6403141361257" width="172.44644160731954" height="19.026178010471185" as="geometry" />
        </mxCell>
        <mxCell id="LvXVNaWHWUKS7mq7CPCq-48" style="edgeStyle=orthogonalEdgeStyle;rounded=0;orthogonalLoop=1;jettySize=auto;html=1;entryX=0;entryY=0.5;entryDx=0;entryDy=0;" parent="1" source="LvXVNaWHWUKS7mq7CPCq-34" target="LvXVNaWHWUKS7mq7CPCq-45" edge="1">
          <mxGeometry relative="1" as="geometry" />
        </mxCell>
        <mxCell id="LvXVNaWHWUKS7mq7CPCq-50" value="&lt;font style=&quot;font-size: 10px;&quot;&gt;post_new_course_db&lt;/font&gt;" style="rounded=0;whiteSpace=wrap;html=1;fillColor=#ffe6cc;strokeColor=#d79b00;container=0;" parent="1" vertex="1">
          <mxGeometry x="565.5993248219587" y="832.3445026178011" width="172.44644160731954" height="19.026178010471185" as="geometry" />
        </mxCell>
        <mxCell id="LvXVNaWHWUKS7mq7CPCq-57" style="edgeStyle=orthogonalEdgeStyle;rounded=0;orthogonalLoop=1;jettySize=auto;html=1;entryX=0;entryY=0.5;entryDx=0;entryDy=0;" parent="1" source="LvXVNaWHWUKS7mq7CPCq-33" target="LvXVNaWHWUKS7mq7CPCq-50" edge="1">
          <mxGeometry relative="1" as="geometry" />
        </mxCell>
        <mxCell id="LvXVNaWHWUKS7mq7CPCq-51" value="&lt;font style=&quot;font-size: 10px;&quot;&gt;get_courses_for_teacher_db&lt;/font&gt;" style="rounded=0;whiteSpace=wrap;html=1;fillColor=#ffe6cc;strokeColor=#d79b00;container=0;" parent="1" vertex="1">
          <mxGeometry x="565.5993248219587" y="898.9361256544502" width="172.44644160731954" height="19.026178010471185" as="geometry" />
        </mxCell>
        <mxCell id="LvXVNaWHWUKS7mq7CPCq-59" style="edgeStyle=orthogonalEdgeStyle;rounded=0;orthogonalLoop=1;jettySize=auto;html=1;entryX=0;entryY=0.5;entryDx=0;entryDy=0;" parent="1" source="LvXVNaWHWUKS7mq7CPCq-44" target="LvXVNaWHWUKS7mq7CPCq-51" edge="1">
          <mxGeometry relative="1" as="geometry" />
        </mxCell>
        <mxCell id="LvXVNaWHWUKS7mq7CPCq-52" value="&lt;font style=&quot;font-size: 10px;&quot;&gt;get_course_datails_db&lt;/font&gt;" style="rounded=0;whiteSpace=wrap;html=1;fillColor=#ffe6cc;strokeColor=#d79b00;container=0;" parent="1" vertex="1">
          <mxGeometry x="565.5993248219587" y="865.6403141361257" width="172.44644160731954" height="19.026178010471185" as="geometry" />
        </mxCell>
        <mxCell id="LvXVNaWHWUKS7mq7CPCq-58" style="edgeStyle=orthogonalEdgeStyle;rounded=0;orthogonalLoop=1;jettySize=auto;html=1;entryX=0;entryY=0.5;entryDx=0;entryDy=0;" parent="1" source="LvXVNaWHWUKS7mq7CPCq-45" target="LvXVNaWHWUKS7mq7CPCq-52" edge="1">
          <mxGeometry relative="1" as="geometry" />
        </mxCell>
        <mxCell id="LvXVNaWHWUKS7mq7CPCq-31" value="Actix App" style="text;html=1;align=center;verticalAlign=middle;resizable=0;points=[];autosize=1;strokeColor=none;fillColor=none;spacing=0;container=0;" parent="1" vertex="1">
          <mxGeometry x="153.15238049483543" y="961.6975380438691" width="70" height="20" as="geometry" />
        </mxCell>
        <mxCell id="LvXVNaWHWUKS7mq7CPCq-75" style="edgeStyle=orthogonalEdgeStyle;rounded=0;orthogonalLoop=1;jettySize=auto;html=1;entryX=0.002;entryY=0.541;entryDx=0;entryDy=0;entryPerimeter=0;" parent="1" source="LvXVNaWHWUKS7mq7CPCq-29" target="LvXVNaWHWUKS7mq7CPCq-55" edge="1">
          <mxGeometry relative="1" as="geometry" />
        </mxCell>
        <mxCell id="LvXVNaWHWUKS7mq7CPCq-76" value="" style="endArrow=classic;html=1;rounded=0;exitX=0;exitY=0.841;exitDx=0;exitDy=0;exitPerimeter=0;" parent="1" source="LvXVNaWHWUKS7mq7CPCq-55" edge="1">
          <mxGeometry width="50" height="50" relative="1" as="geometry">
            <mxPoint x="130.7" y="958" as="sourcePoint" />
            <mxPoint x="64" y="917.96" as="targetPoint" />
            <Array as="points">
              <mxPoint x="64" y="957.96" />
            </Array>
          </mxGeometry>
        </mxCell>
        <mxCell id="Yej3b3tDaTdE6IsX2UMx-1" value="client" style="rounded=0;whiteSpace=wrap;html=1;fillColor=#dae8fc;strokeColor=#6c8ebf;" vertex="1" parent="1">
          <mxGeometry x="840" y="900.0000000000001" width="80" height="40" as="geometry" />
        </mxCell>
        <mxCell id="Yej3b3tDaTdE6IsX2UMx-2" value="" style="rounded=0;whiteSpace=wrap;html=1;fillColor=#ffe6cc;strokeColor=#d79b00;container=0;" vertex="1" parent="1">
          <mxGeometry x="950" y="780" width="680" height="280" as="geometry" />
        </mxCell>
        <mxCell id="Yej3b3tDaTdE6IsX2UMx-3" value="Actix&lt;br&gt;HTTP&lt;br&gt;Server" style="text;html=1;align=center;verticalAlign=middle;resizable=0;points=[];autosize=1;strokeColor=none;fillColor=none;spacing=0;container=0;" vertex="1" parent="1">
          <mxGeometry x="1579.0003105590063" y="894.9955562478675" width="50" height="50" as="geometry" />
        </mxCell>
        <mxCell id="Yej3b3tDaTdE6IsX2UMx-4" value="" style="rounded=0;whiteSpace=wrap;html=1;fillColor=#dae8fc;strokeColor=#6c8ebf;container=0;" vertex="1" parent="1">
          <mxGeometry x="968.15" y="790" width="610" height="260" as="geometry" />
        </mxCell>
        <mxCell id="Yej3b3tDaTdE6IsX2UMx-5" value="PostgreSQL" style="rounded=0;whiteSpace=wrap;html=1;fillColor=#e1d5e7;strokeColor=#9673a6;container=0;" vertex="1" parent="1">
          <mxGeometry x="1364.0047763736352" y="1006.9950281171223" width="202.30522362636466" height="36.18497188287761" as="geometry" />
        </mxCell>
        <mxCell id="Yej3b3tDaTdE6IsX2UMx-7" value="" style="endArrow=classic;html=1;rounded=0;exitX=0.5;exitY=1;exitDx=0;exitDy=0;" edge="1" parent="1">
          <mxGeometry width="50" height="50" relative="1" as="geometry">
            <mxPoint x="1506.1517272034132" y="947.4462129144852" as="sourcePoint" />
            <mxPoint x="1506.1517272034132" y="1006.9911033546634" as="targetPoint" />
          </mxGeometry>
        </mxCell>
        <mxCell id="Yej3b3tDaTdE6IsX2UMx-8" value="" style="endArrow=classic;html=1;rounded=0;" edge="1" parent="1">
          <mxGeometry width="50" height="50" relative="1" as="geometry">
            <mxPoint x="1544.0818977012798" y="979.0227709908861" as="sourcePoint" />
            <mxPoint x="1544.0818977012798" y="1006.5050281171223" as="targetPoint" />
          </mxGeometry>
        </mxCell>
        <mxCell id="Yej3b3tDaTdE6IsX2UMx-9" value="Routes" style="text;html=1;align=center;verticalAlign=middle;resizable=0;points=[];autosize=1;strokeColor=none;fillColor=none;spacing=0;container=0;" vertex="1" parent="1">
          <mxGeometry x="1036.2188411160168" y="800" width="60" height="20" as="geometry" />
        </mxCell>
        <mxCell id="Yej3b3tDaTdE6IsX2UMx-10" value="Handlers" style="text;html=1;align=center;verticalAlign=middle;resizable=0;points=[];autosize=1;strokeColor=none;fillColor=none;spacing=0;container=0;" vertex="1" parent="1">
          <mxGeometry x="1231.2277857315112" y="800" width="70" height="20" as="geometry" />
        </mxCell>
        <mxCell id="Yej3b3tDaTdE6IsX2UMx-11" value="DB Access" style="text;html=1;align=center;verticalAlign=middle;resizable=0;points=[];autosize=1;strokeColor=none;fillColor=none;spacing=0;container=0;" vertex="1" parent="1">
          <mxGeometry x="1425.1547256450697" y="800" width="80" height="20" as="geometry" />
        </mxCell>
        <mxCell id="Yej3b3tDaTdE6IsX2UMx-12" value="&lt;font style=&quot;font-size: 10px;&quot;&gt;GET /teachers&lt;/font&gt;" style="rounded=0;whiteSpace=wrap;html=1;fillColor=#ffe6cc;strokeColor=#d79b00;container=0;" vertex="1" parent="1">
          <mxGeometry x="980" y="832.3445026178011" width="172.44644160731954" height="19.026178010471185" as="geometry" />
        </mxCell>
        <mxCell id="Yej3b3tDaTdE6IsX2UMx-13" value="&lt;font style=&quot;font-size: 10px;&quot;&gt;get_all_teachers&lt;/font&gt;" style="rounded=0;whiteSpace=wrap;html=1;fillColor=#ffe6cc;strokeColor=#d79b00;container=0;" vertex="1" parent="1">
          <mxGeometry x="1179.9996624109795" y="832.3445026178011" width="172.44644160731954" height="19.026178010471185" as="geometry" />
        </mxCell>
        <mxCell id="Yej3b3tDaTdE6IsX2UMx-14" style="edgeStyle=orthogonalEdgeStyle;rounded=0;orthogonalLoop=1;jettySize=auto;html=1;entryX=0;entryY=0.5;entryDx=0;entryDy=0;" edge="1" source="Yej3b3tDaTdE6IsX2UMx-12" target="Yej3b3tDaTdE6IsX2UMx-13" parent="1">
          <mxGeometry relative="1" as="geometry" />
        </mxCell>
        <mxCell id="Yej3b3tDaTdE6IsX2UMx-15" value="&lt;font style=&quot;font-size: 10px;&quot;&gt;GET /teachers/{teacher_id}&lt;/font&gt;" style="rounded=0;whiteSpace=wrap;html=1;fillColor=#ffe6cc;strokeColor=#d79b00;container=0;" vertex="1" parent="1">
          <mxGeometry x="980" y="865.6403141361257" width="172.44644160731954" height="19.026178010471185" as="geometry" />
        </mxCell>
        <mxCell id="Yej3b3tDaTdE6IsX2UMx-16" value="&lt;font style=&quot;font-size: 10px;&quot;&gt;POST /teachers&lt;/font&gt;" style="rounded=0;whiteSpace=wrap;html=1;fillColor=#ffe6cc;strokeColor=#d79b00;container=0;" vertex="1" parent="1">
          <mxGeometry x="980" y="898.9361256544502" width="172.44644160731954" height="19.026178010471185" as="geometry" />
        </mxCell>
        <mxCell id="Yej3b3tDaTdE6IsX2UMx-17" value="&lt;font style=&quot;font-size: 10px;&quot;&gt;post_new_teacher&lt;/font&gt;" style="rounded=0;whiteSpace=wrap;html=1;fillColor=#ffe6cc;strokeColor=#d79b00;container=0;" vertex="1" parent="1">
          <mxGeometry x="1179.9996624109795" y="898.9361256544502" width="172.44644160731954" height="19.026178010471185" as="geometry" />
        </mxCell>
        <mxCell id="Yej3b3tDaTdE6IsX2UMx-18" style="edgeStyle=orthogonalEdgeStyle;rounded=0;orthogonalLoop=1;jettySize=auto;html=1;entryX=0;entryY=0.5;entryDx=0;entryDy=0;" edge="1" source="Yej3b3tDaTdE6IsX2UMx-16" target="Yej3b3tDaTdE6IsX2UMx-17" parent="1">
          <mxGeometry relative="1" as="geometry" />
        </mxCell>
        <mxCell id="Yej3b3tDaTdE6IsX2UMx-19" value="&lt;font style=&quot;font-size: 10px;&quot;&gt;get_teacher_details&lt;/font&gt;" style="rounded=0;whiteSpace=wrap;html=1;fillColor=#ffe6cc;strokeColor=#d79b00;container=0;" vertex="1" parent="1">
          <mxGeometry x="1179.9996624109795" y="865.6403141361257" width="172.44644160731954" height="19.026178010471185" as="geometry" />
        </mxCell>
        <mxCell id="Yej3b3tDaTdE6IsX2UMx-20" style="edgeStyle=orthogonalEdgeStyle;rounded=0;orthogonalLoop=1;jettySize=auto;html=1;entryX=0;entryY=0.5;entryDx=0;entryDy=0;" edge="1" source="Yej3b3tDaTdE6IsX2UMx-15" target="Yej3b3tDaTdE6IsX2UMx-19" parent="1">
          <mxGeometry relative="1" as="geometry" />
        </mxCell>
        <mxCell id="Yej3b3tDaTdE6IsX2UMx-22" style="edgeStyle=orthogonalEdgeStyle;rounded=0;orthogonalLoop=1;jettySize=auto;html=1;entryX=0;entryY=0.5;entryDx=0;entryDy=0;" edge="1" source="Yej3b3tDaTdE6IsX2UMx-13" target="Yej3b3tDaTdE6IsX2UMx-21" parent="1">
          <mxGeometry relative="1" as="geometry" />
        </mxCell>
        <mxCell id="Yej3b3tDaTdE6IsX2UMx-24" style="edgeStyle=orthogonalEdgeStyle;rounded=0;orthogonalLoop=1;jettySize=auto;html=1;entryX=0;entryY=0.5;entryDx=0;entryDy=0;" edge="1" source="Yej3b3tDaTdE6IsX2UMx-17" target="Yej3b3tDaTdE6IsX2UMx-23" parent="1">
          <mxGeometry relative="1" as="geometry" />
        </mxCell>
        <mxCell id="Yej3b3tDaTdE6IsX2UMx-26" style="edgeStyle=orthogonalEdgeStyle;rounded=0;orthogonalLoop=1;jettySize=auto;html=1;entryX=0;entryY=0.5;entryDx=0;entryDy=0;" edge="1" source="Yej3b3tDaTdE6IsX2UMx-19" target="Yej3b3tDaTdE6IsX2UMx-25" parent="1">
          <mxGeometry relative="1" as="geometry" />
        </mxCell>
        <mxCell id="Yej3b3tDaTdE6IsX2UMx-27" value="Actix App" style="text;html=1;align=center;verticalAlign=middle;resizable=0;points=[];autosize=1;strokeColor=none;fillColor=none;spacing=0;container=0;" vertex="1" parent="1">
          <mxGeometry x="972.0023804948353" y="1023.1775380438692" width="70" height="20" as="geometry" />
        </mxCell>
        <mxCell id="Yej3b3tDaTdE6IsX2UMx-29" value="" style="endArrow=classic;html=1;rounded=0;exitX=0;exitY=0.841;exitDx=0;exitDy=0;exitPerimeter=0;entryX=0.5;entryY=1;entryDx=0;entryDy=0;" edge="1" source="Yej3b3tDaTdE6IsX2UMx-4" parent="1" target="Yej3b3tDaTdE6IsX2UMx-1">
          <mxGeometry width="50" height="50" relative="1" as="geometry">
            <mxPoint x="945.7" y="958" as="sourcePoint" />
            <mxPoint x="879" y="917.96" as="targetPoint" />
            <Array as="points">
              <mxPoint x="880" y="1009" />
            </Array>
          </mxGeometry>
        </mxCell>
        <mxCell id="Yej3b3tDaTdE6IsX2UMx-43" value="" style="group" vertex="1" connectable="0" parent="1">
          <mxGeometry x="980" y="959.9961256544501" width="573.0457664292783" height="19.0261780104712" as="geometry" />
        </mxCell>
        <mxCell id="Yej3b3tDaTdE6IsX2UMx-44" value="&lt;font style=&quot;font-size: 10px;&quot;&gt;DELETE /teachers/{teacher_id}&lt;/font&gt;" style="rounded=0;whiteSpace=wrap;html=1;fillColor=#ffe6cc;strokeColor=#d79b00;container=0;" vertex="1" parent="Yej3b3tDaTdE6IsX2UMx-43">
          <mxGeometry width="172.44644160731954" height="19.026178010471185" as="geometry" />
        </mxCell>
        <mxCell id="Yej3b3tDaTdE6IsX2UMx-45" value="&lt;font style=&quot;font-size: 10px;&quot;&gt;delete_teacher&lt;/font&gt;" style="rounded=0;whiteSpace=wrap;html=1;fillColor=#ffe6cc;strokeColor=#d79b00;container=0;" vertex="1" parent="Yej3b3tDaTdE6IsX2UMx-43">
          <mxGeometry x="199.99966241097945" width="172.44644160731954" height="19.026178010471185" as="geometry" />
        </mxCell>
        <mxCell id="Yej3b3tDaTdE6IsX2UMx-46" style="edgeStyle=orthogonalEdgeStyle;rounded=0;orthogonalLoop=1;jettySize=auto;html=1;entryX=0;entryY=0.5;entryDx=0;entryDy=0;" edge="1" parent="Yej3b3tDaTdE6IsX2UMx-43" source="Yej3b3tDaTdE6IsX2UMx-44" target="Yej3b3tDaTdE6IsX2UMx-45">
          <mxGeometry relative="1" as="geometry" />
        </mxCell>
        <mxCell id="Yej3b3tDaTdE6IsX2UMx-48" style="edgeStyle=orthogonalEdgeStyle;rounded=0;orthogonalLoop=1;jettySize=auto;html=1;entryX=0;entryY=0.5;entryDx=0;entryDy=0;" edge="1" parent="Yej3b3tDaTdE6IsX2UMx-43" source="Yej3b3tDaTdE6IsX2UMx-45" target="Yej3b3tDaTdE6IsX2UMx-47">
          <mxGeometry relative="1" as="geometry" />
        </mxCell>
        <mxCell id="Yej3b3tDaTdE6IsX2UMx-6" value="" style="endArrow=classic;html=1;rounded=0;" edge="1" parent="Yej3b3tDaTdE6IsX2UMx-43">
          <mxGeometry width="50" height="50" relative="1" as="geometry">
            <mxPoint x="485.00155670554636" y="-44.99862129144833" as="sourcePoint" />
            <mxPoint x="485.00155670554636" y="46.60890246267229" as="targetPoint" />
          </mxGeometry>
        </mxCell>
        <mxCell id="Yej3b3tDaTdE6IsX2UMx-58" value="" style="endArrow=classic;html=1;rounded=0;exitX=0.25;exitY=1;exitDx=0;exitDy=0;" edge="1" parent="Yej3b3tDaTdE6IsX2UMx-43">
          <mxGeometry width="50" height="50" relative="1" as="geometry">
            <mxPoint x="445.7109352237894" y="-75.32963350785315" as="sourcePoint" />
            <mxPoint x="445.00155670554636" y="46.60890246267229" as="targetPoint" />
          </mxGeometry>
        </mxCell>
        <mxCell id="Yej3b3tDaTdE6IsX2UMx-59" value="" style="endArrow=classic;html=1;rounded=0;exitX=0.045;exitY=0.925;exitDx=0;exitDy=0;exitPerimeter=0;" edge="1" parent="Yej3b3tDaTdE6IsX2UMx-43">
          <mxGeometry width="50" height="50" relative="1" as="geometry">
            <mxPoint x="408.9994146942877" y="-112.99240837696345" as="sourcePoint" />
            <mxPoint x="409" y="47.00387434554989" as="targetPoint" />
          </mxGeometry>
        </mxCell>
        <mxCell id="Yej3b3tDaTdE6IsX2UMx-47" value="&lt;font style=&quot;font-size: 10px;&quot;&gt;delete_teacher_db&lt;/font&gt;" style="rounded=0;whiteSpace=wrap;html=1;fillColor=#ffe6cc;strokeColor=#d79b00;container=0;" vertex="1" parent="Yej3b3tDaTdE6IsX2UMx-43">
          <mxGeometry x="400.5993248219588" width="172.44644160731954" height="19.026178010471185" as="geometry" />
        </mxCell>
        <mxCell id="Yej3b3tDaTdE6IsX2UMx-49" style="edgeStyle=orthogonalEdgeStyle;rounded=0;orthogonalLoop=1;jettySize=auto;html=1;entryX=0;entryY=0.5;entryDx=0;entryDy=0;" edge="1" parent="1" source="Yej3b3tDaTdE6IsX2UMx-1" target="Yej3b3tDaTdE6IsX2UMx-4">
          <mxGeometry relative="1" as="geometry" />
        </mxCell>
        <mxCell id="Yej3b3tDaTdE6IsX2UMx-23" value="&lt;font style=&quot;font-size: 10px;&quot;&gt;post_new_teacher_db&lt;/font&gt;" style="rounded=0;whiteSpace=wrap;html=1;fillColor=#ffe6cc;strokeColor=#d79b00;container=0;" vertex="1" parent="1">
          <mxGeometry x="1380.5993248219588" y="898.9361256544502" width="172.44644160731954" height="19.026178010471185" as="geometry" />
        </mxCell>
        <mxCell id="Yej3b3tDaTdE6IsX2UMx-37" value="" style="group" vertex="1" connectable="0" parent="1">
          <mxGeometry x="980" y="929.9961256544501" width="573.0457664292783" height="19.0261780104712" as="geometry" />
        </mxCell>
        <mxCell id="Yej3b3tDaTdE6IsX2UMx-38" value="&lt;font style=&quot;font-size: 10px;&quot;&gt;PUT /teachers/{teacher_id}&lt;/font&gt;" style="rounded=0;whiteSpace=wrap;html=1;fillColor=#ffe6cc;strokeColor=#d79b00;container=0;" vertex="1" parent="Yej3b3tDaTdE6IsX2UMx-37">
          <mxGeometry width="172.44644160731954" height="19.026178010471185" as="geometry" />
        </mxCell>
        <mxCell id="Yej3b3tDaTdE6IsX2UMx-39" value="&lt;font style=&quot;font-size: 10px;&quot;&gt;update_teacher_details&lt;/font&gt;" style="rounded=0;whiteSpace=wrap;html=1;fillColor=#ffe6cc;strokeColor=#d79b00;container=0;" vertex="1" parent="Yej3b3tDaTdE6IsX2UMx-37">
          <mxGeometry x="199.99966241097945" width="172.44644160731954" height="19.026178010471185" as="geometry" />
        </mxCell>
        <mxCell id="Yej3b3tDaTdE6IsX2UMx-40" style="edgeStyle=orthogonalEdgeStyle;rounded=0;orthogonalLoop=1;jettySize=auto;html=1;entryX=0;entryY=0.5;entryDx=0;entryDy=0;" edge="1" parent="Yej3b3tDaTdE6IsX2UMx-37" source="Yej3b3tDaTdE6IsX2UMx-38" target="Yej3b3tDaTdE6IsX2UMx-39">
          <mxGeometry relative="1" as="geometry" />
        </mxCell>
        <mxCell id="Yej3b3tDaTdE6IsX2UMx-41" value="&lt;font style=&quot;font-size: 10px;&quot;&gt;update_teacher_details_db&lt;/font&gt;" style="rounded=0;whiteSpace=wrap;html=1;fillColor=#ffe6cc;strokeColor=#d79b00;container=0;" vertex="1" parent="Yej3b3tDaTdE6IsX2UMx-37">
          <mxGeometry x="400.5993248219588" width="172.44644160731954" height="19.026178010471185" as="geometry" />
        </mxCell>
        <mxCell id="Yej3b3tDaTdE6IsX2UMx-42" style="edgeStyle=orthogonalEdgeStyle;rounded=0;orthogonalLoop=1;jettySize=auto;html=1;entryX=0;entryY=0.5;entryDx=0;entryDy=0;" edge="1" parent="Yej3b3tDaTdE6IsX2UMx-37" source="Yej3b3tDaTdE6IsX2UMx-39" target="Yej3b3tDaTdE6IsX2UMx-41">
          <mxGeometry relative="1" as="geometry" />
        </mxCell>
        <mxCell id="Yej3b3tDaTdE6IsX2UMx-21" value="&lt;font style=&quot;font-size: 10px;&quot;&gt;get_all_teachers_db&lt;/font&gt;" style="rounded=0;whiteSpace=wrap;html=1;fillColor=#ffe6cc;strokeColor=#d79b00;container=0;" vertex="1" parent="1">
          <mxGeometry x="1380.5993248219588" y="832.3445026178011" width="172.44644160731954" height="19.026178010471185" as="geometry" />
        </mxCell>
        <mxCell id="Yej3b3tDaTdE6IsX2UMx-25" value="&lt;font style=&quot;font-size: 10px;&quot;&gt;get_teacher_details_db&lt;/font&gt;" style="rounded=0;whiteSpace=wrap;html=1;fillColor=#ffe6cc;strokeColor=#d79b00;container=0;" vertex="1" parent="1">
          <mxGeometry x="1380.5993248219588" y="865.6403141361257" width="172.44644160731954" height="19.026178010471185" as="geometry" />
        </mxCell>
        <mxCell id="Yej3b3tDaTdE6IsX2UMx-60" value="&lt;font style=&quot;font-size: 8px;&quot;&gt;web app&lt;br&gt;教师注册&lt;/font&gt;" style="rounded=0;whiteSpace=wrap;html=1;fillColor=#dae8fc;strokeColor=#6c8ebf;" vertex="1" parent="1">
          <mxGeometry x="190" y="1230" width="80" height="40" as="geometry" />
        </mxCell>
        <mxCell id="Yej3b3tDaTdE6IsX2UMx-65" value="&lt;font style=&quot;font-size: 8px;&quot;&gt;webAssembly app&lt;br&gt;课程管理&lt;br&gt;&lt;/font&gt;" style="rounded=0;whiteSpace=wrap;html=1;fillColor=#dae8fc;strokeColor=#6c8ebf;" vertex="1" parent="1">
          <mxGeometry x="190" y="1330" width="80" height="40" as="geometry" />
        </mxCell>
        <mxCell id="Yej3b3tDaTdE6IsX2UMx-71" value="" style="group" vertex="1" connectable="0" parent="1">
          <mxGeometry x="390" y="1280" width="90" height="40" as="geometry" />
        </mxCell>
        <mxCell id="Yej3b3tDaTdE6IsX2UMx-62" value="" style="rounded=0;whiteSpace=wrap;html=1;fillColor=#ffe6cc;strokeColor=#d79b00;" vertex="1" parent="Yej3b3tDaTdE6IsX2UMx-71">
          <mxGeometry width="90" height="40" as="geometry" />
        </mxCell>
        <mxCell id="Yej3b3tDaTdE6IsX2UMx-63" value="Actix&lt;br&gt;HTTP Server" style="text;html=1;align=center;verticalAlign=middle;resizable=0;points=[];autosize=1;strokeColor=none;fillColor=none;spacing=0;" vertex="1" parent="Yej3b3tDaTdE6IsX2UMx-71">
          <mxGeometry width="90" height="40" as="geometry" />
        </mxCell>
        <mxCell id="Yej3b3tDaTdE6IsX2UMx-73" style="edgeStyle=orthogonalEdgeStyle;rounded=0;orthogonalLoop=1;jettySize=auto;html=1;entryX=0.523;entryY=0.019;entryDx=0;entryDy=0;entryPerimeter=0;" edge="1" parent="1" source="Yej3b3tDaTdE6IsX2UMx-60" target="Yej3b3tDaTdE6IsX2UMx-63">
          <mxGeometry relative="1" as="geometry" />
        </mxCell>
        <mxCell id="Yej3b3tDaTdE6IsX2UMx-74" style="edgeStyle=orthogonalEdgeStyle;rounded=0;orthogonalLoop=1;jettySize=auto;html=1;entryX=0.523;entryY=1.007;entryDx=0;entryDy=0;entryPerimeter=0;" edge="1" parent="1" source="Yej3b3tDaTdE6IsX2UMx-65" target="Yej3b3tDaTdE6IsX2UMx-63">
          <mxGeometry relative="1" as="geometry" />
        </mxCell>
        <mxCell id="Yej3b3tDaTdE6IsX2UMx-75" style="edgeStyle=orthogonalEdgeStyle;rounded=0;orthogonalLoop=1;jettySize=auto;html=1;entryX=0.5;entryY=0;entryDx=0;entryDy=0;" edge="1" parent="1" source="Yej3b3tDaTdE6IsX2UMx-63" target="Yej3b3tDaTdE6IsX2UMx-65">
          <mxGeometry relative="1" as="geometry">
            <Array as="points">
              <mxPoint x="230" y="1310" />
            </Array>
          </mxGeometry>
        </mxCell>
        <mxCell id="Yej3b3tDaTdE6IsX2UMx-76" style="edgeStyle=orthogonalEdgeStyle;rounded=0;orthogonalLoop=1;jettySize=auto;html=1;entryX=0.5;entryY=1;entryDx=0;entryDy=0;" edge="1" parent="1" source="Yej3b3tDaTdE6IsX2UMx-63" target="Yej3b3tDaTdE6IsX2UMx-60">
          <mxGeometry relative="1" as="geometry">
            <Array as="points">
              <mxPoint x="230" y="1290" />
            </Array>
          </mxGeometry>
        </mxCell>
      </root>
    </mxGraphModel>
  </diagram>
</mxfile>
